<?xml version="1.0" standalone="no"?>
<!DOCTYPE svg PUBLIC "-//W3C//DTD SVG 1.1//EN" "http://www.w3.org/Graphics/SVG/1.1/DTD/svg11.dtd" >
<svg>
<metadata>
Created by FontForge 20110222 at Mon Mar  7 08:35:51 2011
 By www-data
Copyright (c) Charlotte Iona Dymock, 2000. All rights reserved.
</metadata>
<defs>
<font id="ThunderCats" horiz-adv-x="940" >
  <font-face 
    font-family="ThunderCats"
    font-weight="400"
    font-stretch="normal"
    units-per-em="1000"
    panose-1="0 0 0 0 0 0 0 0 0 0"
    ascent="800"
    descent="-200"
    x-height="701"
    cap-height="1021"
    bbox="-277 -457 4600 1191"
    underline-thickness="50"
    underline-position="-75"
    unicode-range="U+0020-0077"
  />
    <missing-glyph />
    <glyph glyph-name="space" unicode=" " horiz-adv-x="500" 
 />
    <glyph glyph-name="at" unicode="@" horiz-adv-x="4610" 
d="M978 0q-5 0 -5.5 2.5t-10.5 -5.5q-3 -4 -8.5 -9.5l-10.5 -10.5l-8.5 -8.5l-4.5 -4.5l-2 -0.5t-3 -0.5t-2.5 0.5t-2.5 0.5q24 32 37.5 65.5t13.5 73.5q0 4 -0.5 15.5t-0.5 14.5q-52 -57 -97 -92t-90 -55.5t-94.5 -30.5t-110.5 -18q-44 -6 -104 4t-124 37t-126 71.5
t-111 108t-79.5 146.5t-30.5 187q0 14 3.5 60.5t21.5 111.5q9 37 28 80t48.5 85t71 81t95 69t120 48t146.5 18q67 0 133.5 -11t126 -36.5t109.5 -68t84 -105.5h17q0 17 -1 27.5t-5 19.5t-11 18.5t-20 24.5q2 0 7.5 0.5t7.5 0.5q3 0 8.5 -0.5t6.5 -0.5q2 0 11 -3t19 -6.5
t19 -6.5t11 -4h5h5q-15 18 -42 36t-53.5 34t-48 29t-26.5 21h5q67 0 135 -19.5t133 -50.5t125.5 -70.5t111.5 -79.5l10 -10l0.5 -2t0.5 -3t-0.5 -2.5t-0.5 -2.5q-33 13 -62 21.5t-57 13.5t-57 7t-62 2q-5 0 -15 -0.5t-20 -1.5t-18 -1.5t-9 -0.5l-20 -20l-15 -80v-710
q0 -24 -18 -58t-45 -65.5t-58.5 -53.5t-58.5 -22h-5q14 22 28 45.5t25 48.5t18 50.5t7 51.5zM2540 -86q9 16 26 23t35 13t32 16t17 33h-130l60 64v270l-60 10l-10 -20q-1 -67 -10.5 -128.5t-32.5 -114t-63.5 -95t-103.5 -71.5q-22 -10 -48.5 -20t-51.5 -10q-16 0 -35 4.5
t-36.5 13.5t-30.5 22t-18 30q5 0 18 -0.5t27 -0.5t27 0.5t18 0.5q4 0 14.5 3t20.5 7.5t18 11t8 13.5q0 10 -12 16t-19 8v590q0 3 -2.5 10t-5.5 14.5t-6.5 14.5l-5.5 11q4 0 13.5 0.5t20.5 0.5q12 0 22 0.5t14 0.5q62 0 111 -17.5t88 -49.5t68.5 -76.5t52.5 -98.5v13
q0 10 0.5 21.5t0.5 21.5v14q0 27 -0.5 46.5t-5 36t-15 32t-30.5 35.5h240l4 -7t8.5 -16.5t9.5 -19.5t8 -17q6 -15 8.5 -22t2.5 -17v-16q0 -3 -0.5 -12.5t-0.5 -12.5q-11 14 -25.5 28t-31 25.5t-35 18.5t-37.5 7q0 -17 2.5 -36.5t6 -39.5t6.5 -39t4 -34h20q22 0 37.5 2
t42.5 8q0 -1 0.5 -4.5t0.5 -5.5t-0.5 -5.5t-0.5 -4.5q-3 -8 -7.5 -21t-9 -25t-8.5 -20.5t-5 -8.5h-60q-2 0 -5.5 -13.5t-4.5 -21.5v-7q0 -6 -0.5 -14t-0.5 -16v-13v-10q0 -7 0.5 -15t0.5 -15v-10q3 -8 8.5 -9.5t11.5 -1.5q18 0 36.5 11t34 27.5t26.5 36t13 36.5v-160
q0 -35 -23.5 -71.5t-56.5 -69t-69 -58.5t-61 -40v-10q0 -8 19 -15t43 -13t45.5 -9.5t27.5 -3.5q61 0 110.5 22t84 60t53 88.5t18.5 108.5q0 16 1 39t-1 44.5t-10 37t-26 15.5v-225q0 -11 -10.5 -25.5t-24.5 -14.5h-150l60 60v610q0 7 -4.5 15.5t-10.5 17t-13 16t-12 11.5
q9 6 21.5 8.5t25.5 3t25 0t21 -0.5q43 0 87 -10t79.5 -32t58 -57.5t22.5 -86.5q0 -66 -35 -117.5t-95 -77.5v-5q0 -10 7 -19t16 -12t16 1.5t7 21.5q10 -33 17 -55t11.5 -44.5t6 -50.5t0.5 -72q-2 -70 -28 -124.5t-70 -92.5t-102.5 -58t-125.5 -20q-26 0 -59.5 4t-66.5 13
t-62 24.5t-47 39.5zM3129 313q0 82 20.5 160t60.5 150q8 15 20 28t23.5 26.5t19.5 28t8 32.5q0 11 -1.5 18.5t-9.5 16.5h80q8 0 9.5 7.5t1.5 12.5q0 29 -25.5 50t-60 35t-70 20t-55.5 5q22 16 52.5 23t63 8.5t64.5 0.5t58 -1q2 0 14.5 0.5t27.5 0t29.5 -3t20.5 -8.5
q1 -1 0 -9.5t0 -10.5q0 -1 4 -4.5t6 -5.5q54 -37 89 -67.5t59.5 -63.5t42.5 -73t39 -96q2 -3 5.5 -9t4.5 -6h153q0 -31 -18 -55v-510h-115q-1 11 -3 39.5t-3.5 60.5t-2.5 60.5t-1 39.5q-1 18 -6.5 30.5t-14.5 22.5t-21.5 18.5t-27.5 18.5l-10 -20l-42 -270h-158q9 11 18 17
t17.5 12t15 14.5t9.5 26.5l70 380v80q-4 1 -12 4t-16.5 7.5t-14.5 10.5t-7 13h116q0 21 -11 38.5t-28 30.5t-38 20.5t-40 7.5q-44 0 -79.5 -27.5t-60 -68t-37.5 -87t-13 -83.5q0 -34 6.5 -70t24.5 -66h-5q-11 0 -19.5 4t-19.5 4q0 -6 -1 -19.5t-2.5 -29.5t-2.5 -29.5
t0 -19.5q7 -58 38.5 -112.5t77.5 -96.5t102.5 -67t113.5 -25q51 0 89 20.5t65 45.5t44 45.5t25 20.5q1 0 3 -0.5l2 -0.5q2 -1 6 -5t4 -5q0 -2 -4 -9.5t-6 -9.5q-68 -68 -144 -99.5t-171 -31.5q-97 0 -179 36t-141 98.5t-92.5 146.5t-33.5 179zM4130 -116q7 0 25.5 -0.5
t39.5 -0.5t39 0.5t26 0.5q20 1 46 16.5t49 37.5t39 45t16 40v130q0 19 -14.5 41.5t-35.5 42.5t-44 33.5t-41 13.5q-12 0 -19 -4t-7 -17q0 -14 5.5 -25t15.5 -25h-5q-18 0 -44.5 19.5t-51.5 47.5t-43 58t-18 51q0 16 8 27t17 20.5t17 20t8 26.5h-48q19 24 44 44t52 39
t54 37.5t50 39.5q0 1 0.5 2.5t0.5 2.5t-0.5 3l-0.5 2q-5 9 -16 12.5t-23 3.5t-22.5 -1t-13.5 -1q0 2 1.5 3t3.5 3q4 2 15 6t15 4h250q-8 -3 -16.5 -7.5t-13.5 -12.5q19 -10 38.5 -28t35.5 -39.5t26 -45.5t10 -47v-10q-13 15 -29.5 32.5t-36 33t-41 25.5t-42.5 10
q-22 0 -42 -11t-38 -26.5t-33.5 -33t-27.5 -30.5q0 -1 -0.5 -4.5t-0.5 -5.5q0 -8 1.5 -11.5t9.5 -8.5q7 -4 24 -14t36 -21.5t36 -21t24 -13.5v30q20 -16 35.5 -39t27.5 -48.5t21 -52t16 -50.5q0 -4 0.5 -15t0.5 -23t0.5 -22.5t0.5 -14.5q0 -66 -21 -122t-59.5 -96.5
t-93.5 -63.5t-123 -23q-11 0 -28.5 0.5t-34.5 3.5t-31.5 9.5t-20.5 17.5zM3940 -46q1 85 1 177t-1.5 185t-4 183.5t-5.5 173.5q-15 21 -40 21q-14 0 -25 -7t-19.5 -17.5t-15 -23t-10.5 -23.5q0 3 -0.5 14.5t-0.5 15.5q0 35 14 69t37 61q6 7 15.5 17t19 19.5t17 16.5t8.5 7
h10q-8 -14 -9.5 -25t-1.5 -26q0 -5 1.5 -12.5t5.5 -14.5t10 -12t14 -5h260q-4 -29 -15.5 -56t-27.5 -51.5t-36 -47t-41 -40.5v5q0 19 10.5 34.5t10.5 34.5v20q0 14 -5 26t-24 12q-5 0 -12 -0.5t-13.5 -2.5t-11.5 -6.5t-5 -12.5v-640q0 -19 8.5 -30.5t22 -18t29.5 -9t30 -2.5
h26q13 0 24 11q0 -1 0.5 -2.5t0.5 -2.5q0 -12 -11.5 -17.5t-26.5 -7.5t-29.5 -1.5t-21.5 0.5q-22 0 -40.5 0.5t-37 2t-38.5 3.5t-46 5zM50 478q0 -76 22.5 -145t63.5 -127.5t98 -105t126 -77.5q28 -12 78.5 -26.5t125.5 -14.5q49 0 106 12q29 6 51.5 13.5t43 17t40.5 22.5
t44 30q6 4 17.5 17t24 28t23.5 29.5t16 21.5q0 2 0.5 10t0.5 10q0 11 -6.5 28t-16.5 33.5t-23 28t-25 11.5q-15 0 -28.5 -5.5t-27 -12t-27 -13.5t-27.5 -10q-13 -3 -35 -6.5t-48 -8.5t-52.5 -12t-48 -16.5t-35 -22.5t-13.5 -30q0 -3 0.5 -8t1.5 -6l60 -60l0.5 -2t0.5 -3
t-0.5 -3l-0.5 -2q-2 -2 -10 -6t-10 -4h-160q-16 0 -32.5 7.5t-31.5 19.5t-27 26t-19 27l-70 130q-13 23 -32 44.5t-36.5 44t-30 47t-12.5 54.5q0 16 21.5 42t53 55t65.5 59t60 53q21 19 31 31t16 27q9 24 15.5 48t18.5 45q12 22 42.5 35.5t70.5 21t86.5 10.5t90 4.5t81 3
t59.5 5.5q0 1 0.5 2.5t0.5 2.5q0 13 -16 24t-37 19.5t-41 14t-27 7.5q-8 2 -20.5 5.5t-25.5 6.5t-23 5.5t-11 2.5q-3 0 -22.5 1t-39.5 1h-21q-94 0 -181 -35t-154.5 -102t-108.5 -163t-43 -217zM1305 419v-366h-125l20 40v370l-20 40l-10 220v10h135v-160q0 -12 9 -19.5
t21 -11.5t24.5 -5t20.5 -1v107q0 1 -7.5 12.5t-12.5 17.5q-1 2 -4.5 5.5t-5.5 4.5h140v-680h-140q8 9 19 27.5t11 32.5v270q0 15 -7 30t-18 27.5t-24.5 20.5t-25.5 8zM1791 83q0 4 -0.5 15.5t-0.5 14.5q-5 1 -17.5 4t-27 6t-27.5 6t-18 4q-1 0 -5 0.5t-6 0.5q-20 0 -20 -21
q0 -8 3.5 -12.5t8 -8.5t8.5 -9t4 -12q-33 0 -66 12t-59.5 34t-42.5 51.5t-16 64.5q0 40 13 74t38 66v190q-8 11 -15.5 27.5t-7.5 32.5h103q2 0 5.5 -4t4.5 -6q1 -4 3.5 -12l5 -16t4.5 -14.5t2 -7.5v-345q4 0 11.5 -2.5t15 -3t13 3.5t5.5 17v450l-50 60l10 10q2 0 13.5 1
t21.5 1h13q8 0 21.5 0.5t28 -0.5t28.5 -3.5t24 -8.5q-2 -90 -1 -184.5t11 -185.5q1 0 2.5 -0.5t2.5 -0.5t3 0.5l2 0.5q5 3 13 7.5t15 9t12 8.5t5 5v270h87q0 -13 -6.5 -22.5t-6.5 -23.5q0 -2 0.5 -7.5t0.5 -6.5l70 -220h6q0 12 0.5 40t1.5 62t1.5 68.5t0.5 59.5v30
q0 5 -1 15.5t-2.5 21.5t-3.5 20.5t-3 12.5q0 1 -3 4l-6.5 6.5t-6.5 6t-4 3.5q-1 2 -2 5t-1 5h153v-730h-136q0 32 -1 67.5t-7.5 70.5t-20.5 66.5t-40 55.5v-280h-185q12 20 16.5 38.5t4.5 41.5zM2310 143q2 -7 9 -20.5t16 -27t18.5 -23.5t16.5 -10q2 0 5.5 0.5t4.5 0.5
q14 43 17.5 87t3.5 89q0 33 -4 68.5t-14 69t-27.5 63.5t-45.5 53q-9 -3 -9.5 -7.5t-0.5 -10.5v-12q0 -12 0.5 -37t1 -56.5t2 -66.5t2.5 -66.5t2 -56.5t2 -37zM480 178v-5q1 -4 4.5 -15.5t5.5 -14.5q0 3 3 13t7 22t7 23t3 17v5q-9 -7 -19.5 -19.5t-10.5 -25.5zM230 333
q-8 -28 -0.5 -47.5t24 -31.5t39 -17t45.5 -5q28 0 70 10t80 29t65.5 46t27.5 61q0 29 -18 42t-43 23h-16q-11 0 -24 0.5t-25 0.5h-15q-15 0 -37.5 -1t-47.5 -4.5t-49.5 -10.5t-43 -19.5t-28 -31t-4.5 -44.5zM806 393q0 -19 -6.5 -32.5t-17 -24.5t-24 -21t-28.5 -22h10
q45 0 79.5 27t58 67t35.5 85t12 81h-35v-104q-18 0 -35 -4t-33.5 -9.5t-33.5 -9.5t-35 -4q-20 0 -37 9.5t-33.5 21t-33 21t-34.5 9.5h-5q12 -11 18.5 -20t9 -18.5t3 -20t0.5 -23.5q0 -15 -2 -27t-5.5 -22.5t-7 -22t-6.5 -26.5l90 90h96zM3660 413q9 -12 21.5 -24.5t27.5 -23
t30.5 -17t30.5 -6.5q7 0 12 1.5t8 9.5v9q0 6 0.5 13.5t0.5 13.5v9q0 21 -1.5 34.5t-7 24.5t-15.5 21.5t-27 24.5q-8 -5 -12.5 -13.5t-7.5 -16.5q-4 7 -12.5 20t-17.5 20q-19 -6 -25.5 -18.5t-6.5 -26.5v-20q0 -4 0.5 -17.5t1.5 -17.5zM199 412v-17q0 -10 11 -12
q13 31 43.5 49.5t67.5 29t74.5 15t64.5 6.5q-10 10 -21 10.5t-23 0.5q-29 0 -57 -4.5t-57 -4.5q0 12 9 21t22 15.5t26 12t21 9.5v10h-10q-3 0 -19 -7t-36.5 -16.5t-41.5 -19.5t-33 -17q-23 -14 -32 -35t-9 -46zM139 468q0 -4 2.5 -6.5l5 -5t4 -5.5t-0.5 -8q2 2 6 9.5t4 10.5
q0 1 -5 5t-5 5q0 3 4 10.5t6 9.5q-3 -2 -10.5 -9.5t-9.5 -10.5l-0.5 -2t-0.5 -3zM2970 613v-163q15 0 25 11t16 26.5t8.5 31.5t2.5 26t-2 22t-7 22.5t-14 17.5t-24 7q-1 0 -2.5 -0.5t-2.5 -0.5zM850 693q6 -9 16.5 -17t22 -14t22.5 -11t19 -8v50h-80zM520 834
q-25 0 -50 -13.5t-45 -34.5t-32.5 -47t-12.5 -51v-5l130 135h50q1 8 -4.5 11.5t-13 4.5t-14.5 0.5t-8 -0.5z" />
    <glyph glyph-name=".0065" unicode="A" horiz-adv-x="766" 
d="M573 141v62q0 44 -2.5 84t-8.5 93h-5q-38 0 -74.5 -5.5t-74.5 -5.5q-46 0 -84 0.5t-82 10.5q18 17 42.5 22.5t51.5 7t54.5 2t51.5 8.5q6 2 22 8t33.5 12.5t33 12t21.5 7.5q0 2 0.5 7.5t0.5 7.5q0 31 -12.5 68.5t-34 76t-49.5 74.5t-60 64.5t-65 45.5t-64 17t-46 -24.5
t-15 -56.5v-760q0 -3 -5 -13t-12 -22t-15 -24t-13 -19q-9 -11 -22.5 -26.5t-30 -29.5t-35 -24t-37.5 -10q-2 0 -7.5 0.5t-7.5 0.5q9 18 21 39t23 42.5t18.5 44.5t7.5 46v15q-2 -2 -7.5 -6.5t-12 -9.5t-12.5 -9t-8 -5l-2 -0.5t-3 -0.5t-2.5 0.5t-2.5 0.5l22 33t16.5 29t10 29
t3.5 34q0 3 -0.5 12.5t-1.5 12.5q12 28 14.5 78.5t0 114t-8 135t-8.5 142t-2 135.5t11 115q0 2 0.5 10t0.5 10q0 19 -3.5 31t-17.5 29h60q-13 17 -27 28.5t-27.5 21.5t-27 21.5t-25.5 28.5q3 0 14.5 0.5t15.5 0.5q69 0 135.5 -24.5t124.5 -56.5q105 -58 178.5 -120t123 -137
t77.5 -168.5t41 -214.5v-10q0 -9 0.5 -21t0.5 -25v-20q0 -91 -14 -179.5t-47 -168.5t-87 -150t-133 -123q-9 -7 -27.5 -17t-38.5 -19.5t-35.5 -16.5t-18.5 -7h-70q34 10 59 23.5t46 30.5t41 38.5t44 47.5q45 48 68 102t32.5 112t10 119.5t0.5 124.5zM149 920q-8 0 -8 -10
t8 -10t8 10t-8 10z" />
    <glyph glyph-name=".0066" unicode="B" horiz-adv-x="698" 
d="M486 116q0 58 -6 112.5t-35 106.5q-4 7 -13.5 18t-31.5 21.5t-61.5 18t-103.5 7.5v35q51 0 87 15t59.5 42.5t34 65.5t10.5 85q0 36 -9 69t-27.5 58.5t-47 40.5t-67.5 15q-4 0 -15.5 -0.5t-14.5 -0.5q-6 -8 -10.5 -21.5t-7.5 -27.5t-5 -26t-2 -15v-740q0 -3 -5 -13
t-12 -22t-15 -24t-13 -19q-9 -11 -22.5 -26.5t-30 -29.5t-35 -24t-37.5 -10q-2 0 -7.5 0.5t-7.5 0.5q9 18 21 39t23 42.5t18.5 44.5t7.5 46v15q-2 -2 -7.5 -6.5t-12 -9.5t-12.5 -9t-8 -5l-2 -0.5t-3 -0.5t-2.5 0.5t-2.5 0.5q16 29 33.5 62t17.5 68q0 2 -0.5 10t-0.5 10
q3 88 4 193.5t1 209.5v135v120v95q0 20 -6 32.5t-26 27.5h70q-14 16 -29.5 25.5t-30.5 17.5t-29 18t-24 26q4 0 17.5 0.5t17.5 0.5q45 0 104.5 -15.5t122.5 -43t124 -65t108.5 -81.5t77 -93.5t29.5 -99.5q0 -46 -17.5 -81t-39 -60t-39 -40.5t-17.5 -21.5q0 -2 1 -5.5t1 -4.5
q1 -2 7 -8l13 -13t13 -12.5t7 -6.5q3 -3 8.5 -11t12 -18t12 -18.5t7.5 -12.5q9 3 14.5 19t8.5 34.5t4.5 35t2.5 21.5q1 0 2.5 0.5t2.5 0.5q7 0 11 -5t7 -12t4.5 -14t2.5 -10q2 -8 5.5 -21t6.5 -26t5.5 -22.5t2.5 -10.5v-12q0 -11 0.5 -26t0.5 -31v-24q0 -126 -38.5 -228.5
t-111 -175t-176.5 -112t-235 -39.5h-14q-10 0 -21.5 0.5t-21.5 0.5h-13q48 20 98.5 27.5t101.5 22.5q69 21 114 61t71 93t36 115.5t10 128.5z" />
    <glyph glyph-name="C" unicode="C" horiz-adv-x="618" 
d="M4 305q0 -95 33.5 -179t92.5 -146.5t141 -99t179 -36.5q95 0 171 31.5t144 99.5q2 2 6 10t4 10q0 1 -4 5t-6 5l-2 0.5t-3 0.5q-6 0 -15 -10t-22.5 -24.5t-32 -32t-41 -32t-51 -24.5t-61.5 -10q-57 0 -113.5 25.5t-102.5 67.5t-77.5 96.5t-38.5 112.5q-1 6 0 19.5
t2.5 29.5t2.5 29.5t1 19.5q11 0 19.5 -4t19.5 -4h5q-18 30 -24.5 66t-6.5 70q0 37 13 83.5t37.5 87t60 68t79.5 27.5q20 0 45 -14t46.5 -35t36.5 -45.5t15 -45.5l39 -73q0 -3 1.5 12t2 36.5t-0.5 45t-4 37.5q-14 58 -31 98.5t-43 73t-63.5 62t-92.5 66.5q-2 2 -6 5.5t-4 4.5
q-1 2 0 10.5t0 9.5q-6 6 -20.5 8.5t-29.5 3t-27.5 0t-14.5 -0.5q-26 0 -58 1.5t-65 -0.5t-63 -9t-52 -23q20 1 55.5 -5t70 -20t60 -35t25.5 -50q0 -5 -1.5 -12.5t-9.5 -7.5h-80q8 -9 9.5 -16.5t1.5 -18.5q0 -18 -8 -32.5t-19.5 -28t-23.5 -26.5t-20 -28q-40 -72 -60.5 -150
t-20.5 -160z" />
    <glyph glyph-name=".0068" unicode="D" horiz-adv-x="922" 
d="M166 -219q33 6 70 11.5t74 13.5t72 21t64 34q57 40 93.5 101t58.5 131.5t30.5 144t8.5 136.5v39q0 28 -1.5 50.5t-9.5 54.5q-6 25 -20 59t-35 71t-47 73t-56.5 64.5t-63.5 46t-68 17.5q-12 0 -20 -10t-12.5 -23.5t-6 -27t-1.5 -20.5v-775h202q0 -16 -13 -37t-31 -40
t-37 -32t-31 -13h-205v277q0 37 1 92.5t2.5 119.5t3 132.5t3.5 132.5t3 118.5t1.5 90.5t0 48.5t-2.5 -6.5q0 2 0.5 10t0.5 10q0 19 -3.5 31t-17.5 29h60q-13 17 -28.5 27t-31 19t-30.5 19t-27 27q6 0 22.5 1t29.5 1h13q83 0 169 -27.5t166.5 -76t152 -114.5t124.5 -143
t83.5 -161.5t30.5 -169.5v-13q0 -8 -0.5 -16t-0.5 -14v-7l-10 -20q-14 31 -32 57.5t-38 52.5q-10 -135 -48.5 -250t-109.5 -199t-177 -131.5t-251 -47.5q-22 0 -37.5 1t-36.5 10z" />
    <glyph glyph-name=".0069" unicode="E" horiz-adv-x="554" 
d="M149 -231q22 13 46 27t44 31t33.5 38t13.5 48h-267q6 6 16.5 15t20 19.5t17 23t7.5 25.5q0 2 -0.5 5.5t-0.5 4.5q-2 -2 -7.5 -6.5t-12 -9.5t-12.5 -9t-8 -5l-2 -0.5t-3 -0.5t-2.5 0.5t-2.5 0.5l22 33t16.5 29t10 29t3.5 34q0 3 -0.5 12.5t-1.5 12.5q-3 26 -1.5 77.5
t4 117.5t6 141.5t4 149t-2 139.5t-11.5 113q0 2 0.5 10t0.5 10q0 19 -3.5 31t-17.5 29h60q-13 17 -25.5 25.5t-25 15.5t-24.5 15.5t-24 25.5q3 0 14.5 0.5t15.5 0.5q35 0 78 -10t88.5 -27.5t91.5 -40.5t87.5 -48.5t76.5 -52.5t58 -52q-2 0 -7.5 -0.5t-7.5 -0.5
q-26 0 -51.5 5t-52 11t-53 11t-53.5 5h-15q-11 0 -23 -0.5t-23 -0.5h-14q-8 -6 -13.5 -16t-9 -21.5t-5.5 -23t-2 -19.5q0 -14 0.5 -47.5t1.5 -71t1.5 -71.5t0.5 -47q29 0 57 6t56 13.5t56 14t57 6.5v-13l-70 -165h-160v-305h210q24 0 44.5 18.5t37 44t29 53t19.5 44.5
q0 -4 0.5 -17.5t0.5 -17.5q0 -65 -11 -125t-36 -112.5t-65.5 -97t-98.5 -77.5q-11 -6 -17.5 -10t-11 -6.5t-8.5 -3.5t-10 -1h-20q-30 0 -54 2.5t-59 8.5zM128 944q-8 0 -8 -10t8 -10t8 10t-8 10z" />
    <glyph glyph-name=".0070" unicode="F" horiz-adv-x="550" 
d="M84 -61q0 2 -0.5 5.5t-0.5 4.5q-2 -2 -7.5 -6.5t-12 -9.5t-12.5 -9t-8 -5l-2 -0.5t-3 -0.5t-2.5 0.5t-2.5 0.5l22 33t16.5 29t10 29t3.5 34q0 3 -0.5 12.5t-1.5 12.5q-3 48 -3.5 112t-0.5 136t0.5 145.5t1 139t0 117.5t-2.5 81q0 2 0.5 10t0.5 10q0 19 -3.5 31t-17.5 29
h60q-13 17 -25 26.5t-23.5 18t-23 18t-23.5 26.5q3 0 14.5 0.5t15.5 0.5q35 0 78 -10t88.5 -27.5t91.5 -40.5t87.5 -48.5t76.5 -52.5t58 -52q-2 0 -7.5 -0.5t-7.5 -0.5q-26 0 -51.5 5t-52 11t-53 11t-53.5 5h-15q-11 0 -23 -0.5t-23 -0.5h-14q-8 -6 -13.5 -16t-9 -21.5
t-5.5 -23t-2 -19.5q0 -14 0.5 -47.5t1.5 -71t1.5 -71.5t0.5 -47q29 0 57 6t56 13.5t56 14t57 6.5v-13l-70 -165h-160v-385q0 -2 4 -10t6 -10l10 -10t15 -14.5t15 -14t10 -9.5h-240q7 6 17.5 14.5t20 18.5t16.5 21.5t7 23.5zM128 880q-8 0 -8 -10t8 -10t8 10t-8 10z" />
    <glyph glyph-name=".0071" unicode="G" horiz-adv-x="668" 
d="M316 -361l45 40q39 44 59.5 72.5t30 46t10.5 25.5t1 11q0 2 -0.5 7.5t-0.5 7.5q-20 -8 -35 -9.5t-35 -1.5q-53 0 -104 19t-96 50t-83.5 71t-66.5 81q-18 30 -28 77t-12.5 103t3 117t18 117.5t32.5 105t47 80.5q-6 1 -3 6t10.5 13.5t17 20t16.5 25.5q5 11 1 18.5t-12 16.5
h80q8 0 9.5 7.5t1.5 12.5q0 29 -25.5 50t-60 35t-70 20t-55.5 5q22 16 52.5 23t63 8.5t64.5 0.5t58 -1q52 0 68.5 -4t16.5 -10l2 -10q0 -7 15 -17q54 -36 97 -76t72.5 -86.5t45.5 -100t16 -117.5q0 -5 -0.5 -20t-0.5 -20q-18 29 -32.5 64t-33.5 66t-46 51.5t-69 20.5
q-44 0 -79.5 -27.5t-60 -68t-37.5 -87t-13 -83.5q0 -34 6.5 -70t24.5 -66h-5q-11 0 -19.5 4t-19.5 4q0 -6 -1 -19.5t-2.5 -29.5t-2.5 -29.5t0 -19.5q5 -40 26 -85.5t53 -84.5t72 -64.5t84 -25.5q20 0 31.5 8t23.5 22q3 4 9 11.5t6 8.5v130q36 13 56.5 32.5t35.5 41t28.5 42
t34.5 34.5v-17q0 -12 0.5 -25.5t0.5 -25.5v-17q0 -52 -8.5 -113.5t-26 -123t-46 -118.5t-68 -101t-91 -70.5t-116.5 -26.5h-9q-6 0 -13.5 0.5t-13.5 0.5h-9q20 9 33 15.5t32 21.5z" />
    <glyph glyph-name=".0072" unicode="H" horiz-adv-x="813" 
d="M217 -73l15 70v10q1 24 2.5 66t2 95t1 113.5t0.5 122.5t-0.5 122.5t-1.5 112t-1.5 92.5t-1.5 64l-70 130q1 0 2.5 0.5t2.5 0.5t3 -0.5l2 -0.5q6 -6 20 -15t20 -15v15q0 36 -7 67t-24 60q-10 16 -27 26.5t-38.5 17.5t-46 12t-48.5 11q1 0 9.5 0.5t18 1.5t17.5 1.5t10 0.5
q43 0 91 -18t87.5 -49.5t65.5 -73.5t26 -90v-434l315 90v254q0 13 -17 21.5t-43 28.5h200l-1 -611q0 -3 -4 -28t-9.5 -55.5t-12.5 -58.5t-13 -37q-15 -22 -37.5 -57.5t-49 -69.5t-54.5 -58.5t-54 -24.5h-5q37 64 57 131t29 136.5t10 140t1 142.5h-7l-305 -87l2 -229v-44
q0 -19 -1.5 -43t-5.5 -54q0 -43 -13.5 -76.5t-35 -58t-47 -39.5t-50.5 -20.5t-46 -2t-32 16.5q24 8 46 28.5t39.5 45.5t29.5 50.5t15 42.5t-4 21.5t-27 -11.5z" />
    <glyph glyph-name=".0074" unicode="J" 
d="M261 -287q21 -25 47.5 -28t55.5 11t57.5 41.5t54 63.5t45 77.5t30.5 82.5q2 9 7.5 27t11.5 45t10.5 64t4.5 84l3 552q0 6 2.5 17.5t7.5 23.5t11 23t14 16h14q11 0 23 0.5t23 0.5h15q27 0 53.5 -5t53 -11t52 -11t51.5 -5q2 0 7.5 0.5t7.5 0.5q-11 15 -33.5 33.5t-52 38
t-62 38.5t-63 35t-57 28t-42.5 17q-13 4 -36.5 14t-52 22t-59 24t-58.5 20q-25 7 -44.5 13t-44 11.5t-59.5 10.5t-92 10l-144 -5q63 -4 130.5 -8t132 -18t122 -43.5t100.5 -84.5h-60q14 -17 17.5 -29t3.5 -31q0 -2 -0.5 -10t-0.5 -10q1 -154 2 -282.5t0.5 -226.5
t-4.5 -163.5t-13 -93.5v-10q0 -20 -7 -55t-21 -74t-34 -78.5t-45 -69.5t-56 -45t-66 -6z" />
    <glyph glyph-name=".0075" unicode="K" horiz-adv-x="859" 
d="M204 -45v15q-2 -2 -7.5 -6.5t-12 -9.5t-12.5 -9t-8 -5l-2 -0.5t-3 -0.5t-2.5 0.5t-2.5 0.5l22 33t16.5 29t10 29t3.5 34q0 3 -0.5 12.5t-1.5 12.5q2 63 2 110v90v90t1.5 107t5 144t11.5 199v40l-70 130q1 0 2.5 0.5t2.5 0.5t3 -0.5l2 -0.5q5 -5 20 -15t20 -15v15
q0 33 -10.5 65t-39.5 70q-14 17 -31 26t-34 15l-34 12t-31 17q3 0 12.5 0.5t12.5 0.5q43 0 91 -18t87.5 -49.5t65.5 -73.5t26 -90v-450q5 4 17 15t25.5 24t25.5 24.5t17 16.5q13 14 36.5 40t49 54.5t49 55t36.5 41.5q19 26 22.5 41t0 24t-9.5 16t-6 18h302v-14
q-25 0 -50 -9.5t-48 -23.5t-44 -31t-38 -32q-9 -9 -27 -27.5t-41 -42.5t-48 -50t-47.5 -49.5t-40.5 -42.5t-26 -28q-3 -3 -8.5 -10t-12 -15t-12 -15t-7.5 -10l-0.5 -2t-0.5 -3t0.5 -2.5t0.5 -2.5q11 -12 35 -37.5t54.5 -57t64.5 -66.5t64.5 -66.5t55 -56l36.5 -36.5
q41 -41 83.5 -77.5t89 -63.5t97.5 -43t110 -16q30 0 62 12.5t58 27.5q-1 -14 -15 -25.5t-35 -21.5t-47 -18t-51 -13.5t-46 -8.5t-32 -3q-62 0 -118.5 20t-108 52.5t-98.5 74t-89 83.5l-33 33l-50 50t-59 58.5t-59 58t-50.5 49t-33.5 31.5v-460q0 -3 -5 -13t-12.5 -22
t-15 -24.5t-12.5 -19.5q-9 -12 -22.5 -27.5t-30 -29.5t-35 -24t-37.5 -10q-2 0 -7.5 0.5t-7.5 0.5q9 18 21.5 38.5t23 43t18 46t7.5 46.5z" />
    <glyph glyph-name=".0076" unicode="L" horiz-adv-x="234" 
d="M-21 -93l-34 59q-3 3 4.5 -2t19.5 -12t27 -10.5t27.5 3t21 28t7.5 65.5v710q0 16 8.5 37t22.5 43.5t32.5 43.5t38.5 38t40 27.5t38 10.5h5q-14 -22 -28 -45.5t-25 -48.5t-18 -50.5t-7 -51.5q2 0 4 -2.5t4 -1.5l7 7t12.5 13t12.5 13t8 7l2 0.5t3 0.5t2.5 -0.5t2.5 -0.5
q-17 -22 -33.5 -51.5t-16.5 -58.5v-680q61 -36 119.5 -57.5t119 -32.5t125 -15t136.5 -5q-11 -26 -39 -37t-61.5 -14t-66.5 -1.5t-52 1.5q-32 0 -63.5 3.5t-62.5 7.5t-62 7.5t-63 3.5q-5 0 -20 -0.5t-20 -0.5l41 -24q0 -3 -13.5 -3.5t-31 0.5t-35.5 4t-27 7q12 -3 6 -3
q-5 0 -22.5 6.5t-43 21t-52.5 40.5z" />
    <glyph glyph-name=".0079" unicode="O" horiz-adv-x="860" 
d="M8 383q0 81 20 159.5t62 150.5q8 15 20 28t23.5 27t19.5 28.5t8 32.5q0 17 -5.5 25t-25.5 19q3 0 12.5 0.5t12.5 0.5q18 0 33 -5.5t32 -5.5q21 0 41 6t40.5 13.5t41 14t41.5 6.5q118 0 201.5 -40t136.5 -110.5t77.5 -165.5t24.5 -206q0 -9 -0.5 -26t-1.5 -34.5t-1.5 -31
t-0.5 -16.5l-30 -110q23 15 37.5 40.5t22.5 49.5q0 -2 1 -10t1 -10q0 -15 -3 -26.5t-8.5 -22t-13 -23t-17.5 -28.5q-58 -99 -150 -144.5t-201 -45.5q-98 0 -180.5 35.5t-142.5 98t-94 146.5t-34 180zM204 355q0 -62 22 -132.5t62 -130.5t97 -99.5t128 -39.5q79 0 134 37.5
t89 96t49.5 129.5t15.5 137t-20.5 141.5t-61 140t-99.5 107t-137 42.5q-54 0 -100.5 -29t-80.5 -73.5t-53.5 -98.5t-19.5 -104q0 -34 6.5 -70t24.5 -66h-5q-14 0 -24.5 6t-26.5 6z" />
    <glyph glyph-name=".0080" unicode="P" horiz-adv-x="505" 
d="M7 -85q0 -23 -11 -45t-24.5 -43.5t-24.5 -43t-11 -43.5q22 0 42 8.5t37.5 22t32.5 30t28 33.5q5 7 13 19t15 23.5t12 21.5t5 13v749q0 16 3 32.5t10 29.5t18 21t28 8q38 0 66 -15.5t46 -41.5t26.5 -59t8.5 -67q0 -47 -10.5 -85t-34 -65.5t-59.5 -42.5t-87 -15v-33
q41 0 87 2.5t90.5 10.5t85 23.5t71.5 42t49 65t18 92.5t-31 104.5t-82 94.5t-115 80.5t-130 62.5t-128 40.5t-108 14.5h-5q13 -18 31 -30.5t37 -24.5t37.5 -24.5t32.5 -30.5h-5q-13 0 -24.5 5.5t-25.5 5.5q-2 0 -7.5 -0.5t-7.5 -0.5q13 -17 22 -32.5t9 -37.5q0 -2 -0.5 -10
t-0.5 -10zM6 50v-15q0 -39 -15 -71t-35 -66q15 0 29.5 13t20.5 19q0 -2 0.5 -7.5t0.5 -7.5z" />
    <glyph glyph-name=".0081" unicode="Q" 
d="M9 390q0 -84 25 -159t71.5 -135t113.5 -101.5t151 -59.5h20t30 -0.5t30 -0.5h20q45 0 85.5 5.5t84.5 5.5q35 0 70 -5.5t71 -5.5q15 0 36.5 0.5t43.5 4t40.5 12t28.5 24.5h-5q-13 0 -24.5 -5t-25.5 -5q-35 0 -70 11.5t-65 28.5q16 16 38.5 39.5t43 50.5t35 55t14.5 55
q0 2 -0.5 10t-0.5 10q-2 -1 -5.5 -4.5t-4.5 -5.5l-40 -60v5q0 24 3.5 44.5t7 42t7 46t3.5 55.5q0 108 -22.5 204t-73.5 168t-134.5 114t-205.5 42q-36 0 -67.5 -7t-62.5 -14t-64 -11t-71 1q10 -10 10.5 -22t0.5 -25q0 -17 -6.5 -30t-15.5 -24.5t-19.5 -23t-19.5 -25.5
q-45 -72 -63 -147t-18 -158zM208 355h40q0 33 -4.5 63.5t-4.5 65.5q0 51 16.5 103t47.5 94t76 68.5t101 26.5q80 0 138.5 -39t97 -99.5t57 -134t18.5 -142.5v-25t-0.5 -31t-0.5 -27v-13q0 -9 -4.5 -27.5t-12 -42t-17 -48.5t-20 -45.5t-21 -34t-20.5 -13.5q-1 0 -2.5 0.5
t-2.5 0.5q-26 25 -54 50t-58.5 45t-64.5 32.5t-73 12.5h-10q6 -9 15.5 -14.5t20 -10t20 -10t14.5 -15.5q15 -29 24.5 -48.5t18 -36.5t19 -34.5t28.5 -40.5q-3 -10 -12.5 -14.5t-21.5 -5.5t-24.5 -0.5t-21.5 0.5q-46 0 -86 18t-73.5 48t-60 70t-45 83t-28 87.5t-9.5 83.5z
" />
    <glyph glyph-name=".0082" unicode="R" horiz-adv-x="707" 
d="M117 0q0 2 -0.5 7.5t-0.5 7.5zM116 859q0 2 0.5 10t0.5 10q0 22 -9 37.5t-22 32.5q2 0 7.5 0.5t7.5 0.5q14 0 25.5 -5.5t24.5 -5.5h5q-14 18 -32.5 30.5t-38 24t-38 24.5t-31.5 31h5q47 0 111.5 -14.5t134 -41.5t137.5 -63.5t122 -81.5t87.5 -95.5t33.5 -104.5t-20.5 -95
t-55 -69.5t-80 -45.5t-95.5 -23q10 -11 31 -33t47.5 -49.5t56 -58t56 -58t48 -49.5t31.5 -32q42 -42 84.5 -78t88.5 -62.5t97 -41.5t110 -15q24 0 45.5 10t44.5 10h10q-15 -20 -40.5 -34t-54.5 -22t-58.5 -11.5t-52.5 -3.5q-61 0 -118 19.5t-109 52t-99 73.5t-88 83
q-9 10 -29.5 30.5t-46 46.5t-54 54t-54 53.5t-46 45.5t-30.5 30q-13 17 -17 27.5t-4 27.5q0 2 0.5 7.5t0.5 7.5q51 0 87 15t59.5 42.5t34 65.5t10.5 85q0 34 -8.5 67t-26.5 59t-46 41.5t-66 15.5q-17 0 -28 -8t-18 -21t-10 -29.5t-3 -32.5v-750q0 -3 -5 -13t-12 -21.5
t-15 -23.5t-13 -19q-13 -17 -28 -33.5t-33 -30t-38.5 -22t-42.5 -8.5q0 22 11.5 43.5t25 43t25 43.5t11.5 46z" />
    <glyph glyph-name=".0083" unicode="S" horiz-adv-x="650" 
d="M37 -95q93 -13 158 3t106.5 43.5t62.5 58.5t26 49q33 121 33.5 192.5t-23.5 109t-69.5 48.5t-105.5 11q-14 0 -25 -1.5t-11 -18.5q0 -16 6.5 -31.5t14.5 -29.5q-1 0 -4.5 -0.5t-5.5 -0.5q-26 0 -59.5 25t-63 60.5t-49.5 74.5t-20 67q0 5 0.5 14t1.5 10q2 4 8.5 14.5
t14.5 21.5t15.5 21t11.5 13v25h-50q12 17 35.5 37t51 41.5t57 42.5t53 40t39 34.5t15.5 24.5q0 12 -12.5 18t-28.5 8t-31 1t-19 -2l20 10h330q-2 -1 -5.5 -4.5t-4.5 -5.5l-0.5 -2t-0.5 -3t0.5 -2.5t0.5 -2.5q19 -17 41.5 -39t42.5 -47t33.5 -53t13.5 -56q0 -2 -0.5 -7.5
t-0.5 -7.5q-22 18 -43.5 38t-44.5 36t-48.5 26.5t-55.5 10.5q-21 0 -51.5 -14.5t-59 -35.5t-48.5 -45.5t-20 -45.5q0 -16 19 -32.5t45.5 -31.5t53.5 -27t43 -19l10 20q20 -17 41.5 -43.5t39 -56.5t28.5 -61.5t11 -58.5q-1 -102 -6.5 -164.5t-13.5 -98.5t-16 -52t-14 -25
q-53 -91 -139 -131t-186 -40h-17q-9 0 -19 0.5t-20 0.5t-17.5 0.5t-11.5 0.5q-9 2 -19.5 5t-20.5 8.5t-16.5 13t-6.5 18.5z" />
    <glyph glyph-name="T" unicode="T" horiz-adv-x="697" 
d="M518 -7q0 -26 -7 -51.5t-18 -50.5t-25 -48.5t-28 -45.5h5q27 0 58.5 22t58.5 53.5t45 66t18 58.5v710l15 80l20 20q1 0 9 1t18 1.5l20 1t15 0.5q33 0 62 -2t57 -6.5t57 -13.5t62 -22q0 1 0.5 2.5t0.5 2.5t-0.5 3l-0.5 2l-10 10q-51 40 -111.5 79.5t-125.5 70.5t-133 50.5
t-135 19.5h-5q5 -8 26.5 -21t48 -29t53.5 -34t42 -36h-5h-5q-2 1 -11 4t-19 6.5t-19 6.5t-11 3q-1 0 -6.5 0.5t-8.5 0.5q-2 0 -7.5 -0.5t-7.5 -0.5l10 -20q-5 0 -20 -0.5t-20 -0.5q-32 0 -59 3.5t-54 8t-56.5 9.5t-65.5 7q-20 1 -55 2t-71.5 -3.5t-67.5 -17.5t-41 -38
q72 -1 136 -5t125 -15t119.5 -32.5t119.5 -57.5v-680q0 -29 -16.5 -58.5t-33.5 -51.5q1 0 2.5 -0.5t2.5 -0.5t3 0.5l2 0.5l7 7l13 13t12.5 13t7.5 7t4 -1.5t4 -2.5z" />
    <glyph glyph-name=".0086" unicode="V" horiz-adv-x="710" 
d="M17 785v22q0 14 0.5 27.5t0.5 24.5v13l10 40l80 110h6q0 -24 -1 -57t-1 -68t3.5 -70t12.5 -65q1 -2 4.5 -10t5.5 -10l39 51q-24 -71 -28 -143t6.5 -139t33 -125.5t51.5 -103t61.5 -72t63.5 -31.5q3 0 10 -4.5t10 -5.5l2 -0.5t4 -0.5q1 0 2.5 0.5l1.5 0.5q2 2 5.5 9.5
t4.5 10.5l123 683v5v5l-20 30q-2 6 -2 10h202l-20 -30l-148 -792q0 -2 -0.5 -10.5t-0.5 -11.5q0 -4 0.5 -11l0.5 -7q-2 -8 1.5 -13.5t10.5 -8.5t14 -3q8 0 14 5q0 -1 0.5 -2.5t0.5 -2.5q0 -11 -17 -18t-39 -10.5t-42.5 -5t-27.5 -1.5q-71 0 -133 42t-113 109.5t-90 153
t-64 173t-35 168t-3 139.5z" />
    <glyph glyph-name="a" unicode="a" horiz-adv-x="384" 
d="M94 453v80q-4 1 -12 4t-16.5 7.5t-14.5 10.5t-7 13h343q0 -31 -18 -55v-510h-115q-1 11 -3 39.5t-3.5 60.5t-2.5 60.5t-1 39.5q-1 18 -6.5 30.5t-14.5 22.5t-21.5 18.5t-27.5 18.5l-10 -20l-42 -270h-158q9 11 18 17t17.5 12t15 14.5t9.5 26.5zM164 403q9 -12 21.5 -24.5
t27.5 -23t30.5 -17t30.5 -6.5q7 0 12 1.5t8 9.5v9q0 6 0.5 13.5t0.5 13.5v9q0 21 -1.5 34.5t-7 24.5t-15.5 21.5t-27 24.5q-8 -5 -12.5 -13.5t-7.5 -16.5q-4 7 -12.5 20t-17.5 20q-19 -6 -25.5 -18.5t-6.5 -26.5v-20q0 -4 0.5 -17.5t1.5 -17.5z" />
    <glyph glyph-name=".0098" unicode="b" horiz-adv-x="392" 
d="M-159 -49q18 -24 47 -39.5t62.5 -24.5t66.5 -13t59 -4q66 0 124.5 13t100.5 46t64.5 89t18.5 143q-3 56 -22 93t-45.5 60.5t-57 34.5t-55.5 14q60 26 95 77.5t35 117.5q0 51 -22.5 86.5t-58 57.5t-79.5 32t-87 10q-9 0 -21 0.5t-25 0t-25.5 -3t-21.5 -8.5q5 -4 12 -11
t13 -16t10.5 -17.5t4.5 -15.5v-610l-60 -60h150q14 0 24.5 14.5t10.5 25.5l-1 267q18 0 40.5 -4.5t43.5 -19.5t37.5 -43t22.5 -74q8 -70 -8.5 -117.5t-47 -78t-67 -47.5t-68 -24.5t-51 -9t-14.5 -2.5q-35 4 -60 9t-42.5 9.5t-28.5 10t-19 11.5q-14 10 -21 18t-12 11.5
t-9.5 1.5t-12.5 -10zM154 613q1 0 2.5 0.5t2.5 0.5q15 0 24 -7t14 -17.5t7 -22.5t2 -22t-2.5 -26t-8.5 -31.5t-16 -26.5t-25 -11v163z" />
    <glyph glyph-name=".0099" unicode="c" horiz-adv-x="372" 
d="M9 201q0 -65 23.5 -125t64.5 -106t98 -73t125 -27q27 0 63 5.5t70 18.5t61 34.5t36 52.5h-20q-17 -18 -33 -32.5t-33.5 -25.5t-37 -17t-43.5 -6q-35 0 -73 14t-70.5 39t-54.5 57.5t-25 70.5q0 5 0.5 18t1 27t1.5 27t1 18h17q0 23 -6 45t-6 45q0 28 8 59.5t24 58.5t40 45
t56 18q25 0 44 -13.5t33.5 -33t25.5 -42.5t20 -42q8 9 9.5 16t1.5 18q0 46 -13 81.5t-35 65t-51 56t-62 53.5q-7 6 -11 10.5t-7.5 8t-8 6t-13.5 5.5h-13t-19.5 0.5t-19.5 0.5h-13q-9 0 -23.5 -0.5t-32.5 -6t-38 -17t-40 -33.5q14 -2 36.5 -1t43.5 -0.5t36 -9.5t15 -29
q0 -3 -7.5 -10.5t-17.5 -17t-20.5 -21.5t-16.5 -25q-42 -62 -66.5 -123t-24.5 -137z" />
    <glyph glyph-name="d" unicode="d" horiz-adv-x="410" 
d="M-80 -46q5 -17 18 -30t30.5 -22t36.5 -13.5t35 -4.5q25 0 51.5 10t48.5 20q64 29 104 71.5t63.5 95.5t32.5 114.5t10 128.5q-5 57 -9.5 86.5t-13.5 51.5q-4 10 3.5 3.5t21 -23t30 -40.5t28.5 -50q0 66 -26.5 122t-71 96.5t-102 63t-120.5 22.5q-4 0 -14 -0.5t-22 -0.5
q-11 0 -20.5 -0.5t-13.5 -0.5l5.5 -11t6.5 -14.5t5.5 -14.5t2.5 -10v-590q7 -2 19 -8.5t12 -16.5q0 -7 -8 -13.5t-18 -11t-20.5 -7.5t-14.5 -3q-5 0 -17.5 -0.5t-26.5 -0.5q-15 0 -28 0.5t-18 0.5zM150 144q-1 12 -1.5 37t-1.5 56.5t-2 66.5t-2 66.5t-2 56.5t-1 37v12
q0 6 0.5 10.5t9.5 7.5q28 -23 45.5 -53t27.5 -63.5t14 -68.5t4 -69q0 -45 -3.5 -89t-17.5 -87q-1 0 -4.5 -0.5t-5.5 -0.5q-8 0 -17 10t-18 23.5t-16 27t-9 20.5z" />
    <glyph glyph-name="e" unicode="e" horiz-adv-x="360" 
d="M14 -79q15 -17 42 -18t52.5 4.5t43 12t14.5 4.5q30 20 60.5 45.5t56 54t41.5 60t16 63.5v160q-2 -17 -13 -36.5t-26.5 -36t-34 -27.5t-36.5 -11q-6 0 -11.5 1.5t-8.5 9.5v10t-0.5 15t-0.5 15v10v13t0.5 16t0.5 14v7q1 8 4.5 21.5t5.5 13.5h60q1 0 4.5 8.5t8.5 20.5
t9.5 25t7.5 21q0 1 0.5 4.5t0.5 5.5t-0.5 5.5t-0.5 4.5q-27 -6 -42.5 -8t-37.5 -2h-20q-1 15 -4 34t-6.5 39t-6 39.5t-2.5 36.5q19 0 37.5 -7t35 -18.5t31 -25.5t25.5 -28q0 3 0.5 12.5t0.5 12.5v16t-1 11.5t-3.5 11.5t-6.5 16q-3 7 -8 17t-9.5 19.5t-8.5 16.5l-4 7h-240
q20 -20 30.5 -35.5t15 -32t5 -36t0.5 -46.5v-14t-0.5 -21.5t-0.5 -21.5v-13q-9 -4 -19.5 -6t-21.5 2t-23.5 16t-25.5 36q2 -18 4 -38.5t6.5 -38.5t12.5 -31.5t22 -17.5l55 -2v-270l-60 -65h130q-3 -23 -13.5 -35t-27 -19t-37.5 -12t-44 -12z" />
    <glyph glyph-name="h" unicode="h" horiz-adv-x="340" 
d="M145 416q12 0 25.5 -8t24.5 -20.5t18 -27.5t7 -30v-270q0 -14 -11 -32.5t-19 -27.5h140v680h-140q2 -1 5.5 -4.5t4.5 -5.5q5 -6 12.5 -17.5t7.5 -12.5v-107q-8 0 -20.5 1t-24.5 5t-21 11.5t-9 19.5v160h-135v-10l10 -220l20 -40v-370l-20 -40h125v366z" />
    <glyph glyph-name=".0108" unicode="l" horiz-adv-x="214" 
d="M9 -5q0 -21 11.5 -48t30 -51t42 -40.5t47.5 -16.5q2 0 5.5 0.5t4.5 0.5l-10 20q3 0 14.5 0.5t15.5 0.5q25 0 49.5 -3.5t48.5 -7.5t48 -7.5t50 -3.5q16 0 41 -0.5t51 2.5t48.5 11.5t33.5 27.5q-10 0 -35.5 1t-54.5 2.5t-54.5 3.5t-35.5 3q-2 0 -13 2.5t-25.5 6t-29 6.5
t-22.5 5q-7 2 -26.5 10t-40.5 17.5t-37 19t-16 13.5v530q0 8 3.5 20.5t9.5 25.5t13 25t14 19q-1 0 -2.5 0.5t-2.5 0.5t-3 -0.5l-2 -0.5q-2 -2 -8 -6t-12 -8.5l-12 -9t-8 -6.5v10q0 21 9.5 40t21.5 37.5t21.5 37t9.5 38.5q-11 0 -35.5 -16t-49.5 -38t-43.5 -44t-18.5 -35
v-587q-2 0 -7.5 -2t-7.5 -1q-4 2 -15.5 9.5t-14.5 10.5q0 -3 -0.5 -12.5t-0.5 -12.5z" />
    <glyph glyph-name="n" unicode="n" horiz-adv-x="375" 
d="M40 90q1 0 -5 -21t-15 -42q-3 -8 -17 -21.5t-28 -17.5h185v280q26 -24 40 -56t20.5 -66.5t7.5 -70t1 -67.5h136v730h-153q0 -2 1 -5t2 -5q1 -1 4 -3.5t6.5 -6l6.5 -6.5t3 -4q1 -3 3 -12.5t3.5 -20.5t2.5 -21.5t1 -15.5v-30t-0.5 -46t-1 -54t-1 -54t-1 -46t-0.5 -30h-6
l-70 220q0 1 -0.5 6.5t-0.5 7.5q0 14 6.5 23.5t6.5 22.5h-87v-270q0 -1 -5 -4.5t-12 -8.5t-15 -9.5t-13 -7.5h-3q-2 0 -2 -1v-267z" />
    <glyph glyph-name=".0111" unicode="o" horiz-adv-x="640" 
d="M9 335q0 -70 24 -131t67 -106.5t103 -72t132 -26.5q34 0 63.5 2t61.5 19q16 8 39 25.5t46.5 39t42.5 45.5t27 45q-1 -2 3 5.5t8 24t6.5 41t-0.5 56.5l-51 -93q18 57 19.5 111.5t-6.5 103t-23 88.5t-31 68q-18 31 -46 54t-61 38t-69 22t-69 7h-11t-16.5 -0.5t-16.5 -0.5
h-11q-16 -11 -35.5 -15.5t-39.5 -4.5q-17 0 -32.5 5t-32.5 5h-10q17 -11 24 -18t7 -21q0 -12 -4 -19.5t-10.5 -13.5t-13.5 -12.5t-13 -15.5q-38 -57 -54.5 -122.5t-16.5 -132.5zM148 275q0 4 0.5 17.5t1.5 17.5q3 -2 14.5 -5.5t15.5 -4.5h10h10q-11 9 -17 22t-9 27
t-3.5 28.5t-0.5 27.5q0 37 13.5 77t38 73t58.5 54.5t75 21.5q39 0 70.5 -14.5t55.5 -38.5t41 -56t28 -66.5t16 -69.5t5 -66q0 -48 -8 -101.5t-30.5 -97.5t-62 -73t-102.5 -29q-41 0 -80.5 26t-70.5 65t-50 83.5t-19 81.5z" />
    <glyph glyph-name=".0112" unicode="p" horiz-adv-x="299" 
d="M131 261v-225q0 -11 -10.5 -25.5t-24.5 -14.5h-149l59 60v610q0 7 -4.5 15.5t-10.5 17.5t-13 16l-11 11q9 6 21 8.5t25 3t25 0t21 -0.5q48 0 91 -9.5t75.5 -31.5t52 -57.5t19.5 -87.5q0 -69 -27 -117.5t-94 -77.5l-46 -26zM126 606v-163q15 0 25 11t16 26.5t8.5 31.5
t2.5 26t-2 22t-7 22.5t-14 17.5t-24 7q-1 0 -2.5 -0.5t-2.5 -0.5z" />
    <glyph glyph-name=".0113" unicode="q" horiz-adv-x="690" 
d="M9 340q0 -76 24 -138.5t67.5 -107.5t105.5 -70t139 -25q34 0 63.5 5.5t61.5 5.5q29 0 57 -5.5t58 -5.5h11t16.5 0.5t16.5 0.5h11q7 4 20 12.5t20 17.5h-5h-5l-30 -10h-5q-9 0 -25 3t-32.5 8t-30 12.5t-17.5 16.5q21 20 39 40.5t32 43t22 47.5t8 54q0 4 -0.5 17.5
t-0.5 17.5q-9 -7 -17.5 -20t-12.5 -20q7 83 -1.5 164t-41 144.5t-93.5 103t-159 39.5q-27 0 -52.5 -2.5t-50 -5t-50 -4t-52.5 0.5q8 -9 9.5 -17t1.5 -19q0 -14 -9 -30t-21 -32.5t-23.5 -32.5t-17.5 -29q-10 -24 -16 -45.5t-9.5 -42.5t-4.5 -43t-1 -49zM157 300h43
q-14 23 -17.5 45t-3.5 50q0 39 11.5 79.5t34.5 73.5t57 53.5t78 20.5q58 0 96.5 -30.5t61.5 -76.5t33 -100t10 -100q0 -26 -1 -57.5t-6.5 -63t-18 -59t-35.5 -45.5q-15 16 -33.5 34t-39.5 33t-44.5 25t-47.5 10q-3 0 -12.5 -1t-12.5 -1q21 -18 37 -37t29.5 -39t26.5 -41
t27 -43q-19 -8 -31 -9.5t-29 -1.5q-50 0 -89.5 28t-67 70t-42 91.5t-14.5 91.5z" />
    <glyph glyph-name="r" unicode="r" horiz-adv-x="310" 
d="M-274 -87q0 -13 14.5 -23.5t37.5 -19.5t50.5 -16t52.5 -12t44.5 -7.5t27.5 -2.5q42 0 95 10.5t101.5 42.5t84.5 91.5t45 158.5q3 39 4 63t-0.5 44.5t-6.5 41.5t-14 54q0 -16 -10 -22.5t-22 -4t-22 14.5t-10 32v5q67 29 94 78t27 117q0 52 -19.5 87.5t-52 57.5t-75.5 31.5
t-91 9.5q-9 0 -21 0.5t-25 0t-25.5 -3t-21.5 -8.5q5 -4 12 -11t13 -16t10.5 -17.5t4.5 -15.5v-610l-60 -60h150q14 0 24.5 14.5t10.5 25.5v225q18 0 26 -15.5t10 -37t1 -44.5t-1 -39q0 -58 -18.5 -109t-53 -89t-84 -60t-110.5 -22q-6 0 -26 4t-43 10.5t-42.5 13.5t-23.5 13
q-8 11 -21 17t-24 8t-17 0.5t0 -5.5zM148 613q1 0 2.5 0.5t2.5 0.5q15 0 24 -7t14 -17.5t7 -22.5t2 -22t-2.5 -26t-8.5 -31.5t-16 -26.5t-25 -11v163z" />
    <glyph glyph-name="s" unicode="s" horiz-adv-x="486" 
d="M6 -122q6 -11 20.5 -17.5t32 -9.5t34.5 -3.5t28 -0.5q68 0 123 23t93.5 63.5t59.5 96.5t21 123q0 4 -0.5 14.5t-0.5 22.5t-0.5 23t-0.5 15q-7 24 -16 50.5t-21 52t-27.5 48.5t-35.5 39v-30q-7 4 -24 13.5t-36 21t-36 21.5t-24 14q-8 5 -9.5 8.5t-1.5 11.5q0 2 0.5 5.5
t0.5 4.5q12 13 27.5 30.5t33.5 33.5t38 26.5t42 10.5t43 -10.5t40 -25.5t36 -32.5t30 -32.5v10q0 23 -10 47t-26 45.5t-35.5 39.5t-38.5 28q5 8 13.5 12.5t16.5 7.5h-250q-4 0 -15 -4t-15 -6q-2 -2 -3.5 -3t-1.5 -3q3 0 13.5 1t22.5 1t23 -3.5t16 -12.5l0.5 -2t0.5 -3
t-0.5 -2.5t-0.5 -2.5q-23 -21 -50 -39.5t-54 -37.5t-52 -39t-44 -44h48q0 -16 -8 -26.5t-17 -20t-17 -20.5t-8 -27q0 -21 18 -51t43 -58t51.5 -47.5t44.5 -19.5h5q-10 14 -15.5 25t-5.5 25q0 13 7 17t19 4q18 0 41 -13.5t44 -33.5t35.5 -42.5t14.5 -41.5v-130
q0 -17 -16 -40.5t-39 -45.5t-49 -37.5t-46 -16.5q-8 0 -26.5 -0.5t-39.5 -0.5q-20 0 -38.5 0.5t-25.5 0.5z" />
    <glyph glyph-name="t" unicode="t" horiz-adv-x="299" 
d="M78 -59q26 -3 46 -5t38.5 -3.5t37 -2t40.5 -0.5q7 0 21.5 -0.5t29.5 1.5t26.5 7.5t11.5 17.5q0 1 -0.5 2.5t-0.5 2.5q-10 -11 -24 -11h-26q-14 0 -30 2.5t-29.5 9t-22 18.5t-8.5 31v640q0 8 5 12.5t11.5 6.5t13.5 2.5t12 0.5q12 0 18.5 -5.5t8.5 -14t2 -18.5v-20
q0 -19 -10.5 -34.5t-10.5 -34.5v-5q42 37 77 87.5t43 107.5h-260q-8 0 -14 5t-10 12t-5.5 14.5t-1.5 12.5q0 15 1.5 26t9.5 25h-10q-1 0 -8.5 -7t-17 -16.5t-19 -19.5t-15.5 -17q-23 -27 -37 -61t-14 -69q0 -4 0.5 -15.5t0.5 -14.5q4 11 10 23.5t15 23t20 17.5t25 7
q25 0 40 -21q3 -83 5 -173.5t3.5 -183.5t2 -185.5t-0.5 -177.5z" />
    <glyph glyph-name="u" unicode="u" horiz-adv-x="330" 
d="M9 194q0 -35 16 -64.5t42.5 -51.5t59.5 -34t66 -12q0 7 -4 12t-8.5 9t-8 8.5t-3.5 12.5q0 21 20 21q2 0 6 -0.5t5 -0.5q11 -2 27 -5t31 -6.5t26 -6l11 -2.5l24 -1l1 631q0 2 -11.5 5.5t-18.5 4.5q-2 0 -11 0.5t-20.5 1t-23.5 0.5h-17h-13q-7 0 -14.5 -0.5t-13.5 -1
t-7 -0.5l-10 -10l50 -60v-450q0 -13 -5.5 -17t-13 -3.5t-15 3t-11.5 2.5v345q0 1 -2 7.5t-4 14.5t-5 16t-4 12q-1 2 -4.5 6t-5.5 4h-103q0 -16 7.5 -32.5t15.5 -27.5v-190q-25 -32 -38 -66t-13 -74z" />
    <glyph glyph-name=".0118" unicode="v" horiz-adv-x="505" 
d="M9 510v16q0 7 1 24t2.5 36t3.5 36t3 24q15 24 31.5 48t38.5 42q-2 -48 -1 -100t11 -100q0 -2 4 -6t6 -4q3 0 10.5 4t9.5 6v-5q0 -28 -5.5 -55t-5.5 -56q0 7 -1 -10.5t0.5 -49t7.5 -70t20 -72t38.5 -56.5t62.5 -23q10 0 13 3.5t6 17.5l90 450v5v5l-10 20q0 2 -1 5t-1 5
h153l-121 -570q0 -1 -0.5 -7.5t-0.5 -8.5q0 -11 5 -18.5t11 -12t11 -7t5 -3.5q0 -12 -13 -17.5t-29.5 -6.5t-32.5 0t-21 1q-58 0 -103 24t-78.5 63.5t-56.5 92t-37 109t-20 114t-6 107.5z" />
    <glyph glyph-name=".0119" unicode="w" horiz-adv-x="671" 
d="M391 286q-15 -27 -27.5 -60.5t-23.5 -67t-20.5 -65.5t-18.5 -57q-2 -5 -5.5 -12.5t-4.5 -7.5h-80h-2q-31 35 -51 64.5t-33.5 56t-24 51t-21.5 48.5q-18 38 -30 85.5t-20.5 96.5t-15.5 95t-15 82.5t-19 58.5t-27 22h10q27 0 49 -16t40 -34q7 40 30.5 72.5t55 59.5t68 48.5
t69.5 38.5q-18 -29 -37 -55t-35.5 -52.5t-27 -55.5t-10.5 -63q0 -23 -1 -56.5t-1 -71.5t2 -76.5t8 -71.5q9 -29 17 -53.5t32 -53.5l12.5 25l19.5 39l23 46t23 45.5t19.5 39t12.5 25.5q7 13 12 21t11 12.5t14.5 6t22.5 1.5q4 0 15.5 -0.5t14.5 -0.5q2 -3 5.5 -14.5t4.5 -15.5
l60 -280l44 392q6 48 0.5 73.5t-5.5 19.5q0 5 -10 11t-22.5 12t-24.5 11.5t-16 10.5h224q-8 -17 -13 -40t-7 -40l-75 -639h-145q-1 0 -4.5 15t-5.5 24t-5 28.5t-7 43.5q-4 25 -8.5 52.5t-8.5 52t-7 44t-4 29.5z" />
  </font>
</defs>
</svg>
